# xmcd CD database file
#
# Track frame offsets:
#	150
#	15805
#	28935
#	47625
#	60980
#	75642
#	90442
#	104622
#	124355
#	139575
#
# Disc length: 2049 seconds
#
# Revision: 0
# Processed by: cddbd v1.5.2PL0 Copyright (c) Steve Scherf et al.
# Submitted via: CDex 1.51
#
DISCID=7507ff0a
DTITLE=Lowell Fulsom - Lovemaker
DYEAR=1999
DGENRE=Blues
TTITLE0=When Things Go Wrong
TTITLE1=Love Her With A Feeling
TTITLE2=Your One Success Is On Me
TTITLE3=I Am Not Worried
TTITLE4=Lovemaker
TTITLE5=Bending Like A Willow Tree
TTITLE6=Get The Cash And Let The Credit Go
TTITLE7=My Mind Is Trying To Leave Me Too
TTITLE8=Price For Love
TTITLE9=All I Want Is For You To Love Me
EXTD=YEAR: 1999
EXTT0=
EXTT1=
EXTT2=
EXTT3=
EXTT4=
EXTT5=
EXTT6=
EXTT7=
EXTT8=
EXTT9=
PLAYORDER=
